<?xml version="1.0" encoding="UTF-8"?>
<svg width="46px" height="40px" viewBox="0 0 46 40" version="1.1" xmlns="http://www.w3.org/2000/svg" xmlns:xlink="http://www.w3.org/1999/xlink">
    <!-- Generator: Sketch 49 (51002) - http://www.bohemiancoding.com/sketch -->
    <title>marchio copy</title>
    <desc>Created with Sketch.</desc>
    <defs>
        <polygon id="path-1" points="46 9.5 46 19 0 19 0 9.5 0 0 46 0"></polygon>
    </defs>
    <g id="Symbols" stroke="none" stroke-width="1" fill="none" fill-rule="evenodd">
        <g id="footer" transform="translate(-239.000000, -41.000000)">
            <g id="footer-copy" transform="translate(53.000000, 0.000000)">
                <g id="marchio-copy" transform="translate(186.000000, 41.000000)">
                    <polygon id="Fill-1" fill="#9D27B4" points="0.245545572 0 0.245545572 5.34391878 11.6856728 5.34391878 0 13.3883068 0 18 22 18 22 12.6559041 9.88382756 12.6559041 21.910261 4.61877638 21.910261 0"></polygon>
                    <polygon id="Fill-2" fill="#9D27B4" points="24 0 24 5.34391878 35.7131302 5.34391878 24.0577904 13.3883068 24.0577904 18 46 18 46 12.6559041 33.9156369 12.6559041 45.9106715 4.61877638 45.9106715 0"></polygon>
                    <g id="Group-5" transform="translate(0.000000, 21.000000)">
                        <mask id="mask-2" fill="white">
                            <use xlink:href="#path-1"></use>
                        </mask>
                        <g id="Clip-4"></g>
                        <path d="M46,9.19724867 C46,4.09360277 41.8368589,-0.04984693 36.7091723,0.000453176898 L33.2526815,0.000453176898 C30.2859311,0.000453176898 28.4172761,0.427053396 26.3054875,2.61899723 L23.0000868,5.95090397 L19.6945125,2.61899723 C17.5827239,0.427053396 15.7140689,0.000453176898 12.7474922,0.000453176898 L9.29100142,0.000453176898 C4.1631411,-0.04984693 0,4.09360277 0,9.19724867 L0,9.80257848 C0,14.9063972 4.1631411,19.0498469 9.29100142,18.9995468 L12.7474922,18.9995468 C15.7140689,18.9995468 17.5827239,18.5729466 19.6945125,16.3808299 L23.0000868,13.0492689 L26.3054875,16.3808299 C28.4172761,18.5729466 30.2859311,18.9995468 33.2526815,18.9995468 L36.7091723,18.9995468 C41.8368589,19.0498469 46,14.9063972 46,9.80257848 L46,9.19724867 Z M16.1548353,12.3703039 C15.0548296,13.304745 13.8270052,13.7700642 12.8416196,13.7700642 L9.40909486,13.7700642 C7.16636149,13.7700642 5.36196319,11.9744714 5.36196319,9.74225292 L5.36196319,9.25774708 C5.36196319,7.02535574 7.16636149,5.22976292 9.40909486,5.22976292 L12.8416196,5.22976292 C13.8270052,5.22976292 15.0548296,5.69508212 16.1548353,6.62969613 L19.1929627,9.49991357 L16.1548353,12.3703039 Z M40.6380368,9.74225292 C40.6380368,11.9744714 38.8336385,13.7700642 36.5909051,13.7700642 L33.1583804,13.7700642 C32.1729948,13.7700642 30.9451704,13.304745 29.8453384,12.3703039 L26.8070373,9.49991357 L29.8453384,6.62969613 C30.9451704,5.69508212 32.1729948,5.22976292 33.1583804,5.22976292 L36.5909051,5.22976292 C38.8336385,5.22976292 40.6380368,7.02535574 40.6380368,9.25774708 L40.6380368,9.74225292 Z" id="Fill-3" fill="#9D27B4" mask="url(#mask-2)"></path>
                    </g>
                </g>
            </g>
        </g>
    </g>
</svg>