<?xml version="1.0" encoding="UTF-8" standalone="no"?>
<!-- Generator: Adobe Illustrator 19.2.1, SVG Export Plug-In . SVG Version: 6.00 Build 0)  -->

<svg
   version="1.1"
   id="layer"
   x="0px"
   y="0px"
   viewBox="0 0 186.04591 103.14614"
   xml:space="preserve"
   sodipodi:docname="entrepreneur-first-logo-vector.svg"
   width="186.04591"
   height="103.14614"
   inkscape:version="1.2 (dc2aeda, 2022-05-15)"
   xmlns:inkscape="http://www.inkscape.org/namespaces/inkscape"
   xmlns:sodipodi="http://sodipodi.sourceforge.net/DTD/sodipodi-0.dtd"
   xmlns="http://www.w3.org/2000/svg"
   xmlns:svg="http://www.w3.org/2000/svg"><defs
   id="defs11" /><sodipodi:namedview
   id="namedview9"
   pagecolor="#ffffff"
   bordercolor="#000000"
   borderopacity="0.25"
   inkscape:showpageshadow="2"
   inkscape:pageopacity="0.0"
   inkscape:pagecheckerboard="0"
   inkscape:deskcolor="#d1d1d1"
   showgrid="false"
   inkscape:zoom="0.36196319"
   inkscape:cx="44.20339"
   inkscape:cy="55.254237"
   inkscape:window-width="1309"
   inkscape:window-height="456"
   inkscape:window-x="820"
   inkscape:window-y="545"
   inkscape:window-maximized="0"
   inkscape:current-layer="layer" />
<style
   type="text/css"
   id="style2">
	.st0{fill:#2D1530;}
	.st1{fill:#F8795D;}
</style>

<path
   class="st1"
   d="m 68.845914,61.646142 c -9.7,13.7 -28.7,16.9 -42.4,7.1 -13.7,-9.7 -16.9000001,-28.7 -7.1,-42.4 5.4,-7.6 14,-12.3 23.3,-12.7 h 1.5 c 14.2,0 26.5,9.8 29.6,23.7 h -46.5 v 13.5 h 60.2 c 0.4,-2.9 0.6,-5.9 0.5,-8.9 -1.1,-24.3 -21.8,-42.9999997 -46,-41.89999967 -24.2,1.09999997 -43.0000001,21.79999967 -41.90000014,45.99999967 1.10000004,23.5 20.50000014,42 44.10000014,41.9 h 2.1 c 16.7,-0.9 31.4,-11.1 38.1,-26.4 h -15.5 z m 30.8,-24.4 h 86.399996 v 13.6 H 99.645914 Z m 72.799996,24.4 h 13.5 v 41.499998 h -13.5 z m -29.7,0 h 13.5 v 41.499998 h -13.5 z"
   id="path6" />
</svg>
