<?xml version="1.0" encoding="UTF-8" standalone="no"?>
<svg
   width="113.529"
   height="90.304001"
   viewBox="0 0 113.529 90.304001"
   fill="none"
   version="1.1"
   id="svg1"
   sodipodi:docname="thehumanoid.svg"
   inkscape:version="1.3.2 (091e20e, 2023-11-25)"
   xmlns:inkscape="http://www.inkscape.org/namespaces/inkscape"
   xmlns:sodipodi="http://sodipodi.sourceforge.net/DTD/sodipodi-0.dtd"
   xmlns="http://www.w3.org/2000/svg"
   xmlns:svg="http://www.w3.org/2000/svg">
  <defs
     id="defs1" />
  <sodipodi:namedview
     id="namedview1"
     pagecolor="#ffffff"
     bordercolor="#666666"
     borderopacity="1.0"
     inkscape:showpageshadow="2"
     inkscape:pageopacity="0.0"
     inkscape:pagecheckerboard="true"
     inkscape:deskcolor="#d1d1d1"
     inkscape:zoom="7.1694915"
     inkscape:cx="51.537825"
     inkscape:cy="41.076832"
     inkscape:window-width="1512"
     inkscape:window-height="916"
     inkscape:window-x="0"
     inkscape:window-y="38"
     inkscape:window-maximized="1"
     inkscape:current-layer="svg1" />
  <path
     d="m 12.895999,36.812 h 2.832 v 16.8 h -2.832 z m -10.8959998,0 h 2.832 v 16.8 h -2.832 z m 2.688,6.792 h 8.3519998 v 2.424 H 4.6879992 Z m 17.9052998,10.2 c -0.864,0 -1.64,-0.176 -2.328,-0.528 -0.672,-0.368 -1.2,-0.888 -1.584,-1.56 -0.384,-0.688 -0.576,-1.512 -0.576,-2.472 v -7.728 h 2.64 v 7.248 c 0,0.864 0.224,1.536 0.672,2.016 0.448,0.48 1.064,0.72 1.848,0.72 0.704,0 1.304,-0.192 1.8,-0.576 0.512,-0.384 0.904,-0.936 1.176,-1.656 0.272,-0.72 0.408,-1.568 0.408,-2.544 v -5.208 h 2.64 v 12.096 h -2.64 V 51.74 c -0.368,0.624 -0.912,1.128 -1.632,1.512 -0.704,0.368 -1.512,0.552 -2.424,0.552 z m 23.4008,-12.48 c 0.848,0 1.6,0.184 2.256,0.552 0.672,0.352 1.184,0.856 1.536,1.512 0.368,0.656 0.552,1.424 0.552,2.304 v 7.92 h -2.616 v -7.344 c 0,-0.544 -0.096,-1.008 -0.288,-1.392 -0.176,-0.4 -0.44,-0.704 -0.792,-0.912 -0.336,-0.224 -0.744,-0.336 -1.224,-0.336 -0.624,0 -1.168,0.184 -1.632,0.552 -0.464,0.352 -0.824,0.832 -1.08,1.44 -0.24,0.608 -0.36,1.288 -0.36,2.04 v 5.952 h -2.616 v -7.344 c 0,-0.544 -0.096,-1.008 -0.288,-1.392 -0.176,-0.4 -0.44,-0.704 -0.792,-0.912 -0.336,-0.224 -0.744,-0.336 -1.224,-0.336 -0.608,0 -1.152,0.184 -1.632,0.552 -0.464,0.352 -0.824,0.832 -1.08,1.44 -0.24,0.608 -0.36,1.288 -0.36,2.04 v 5.952 h -2.616 V 41.516 h 2.616 v 1.848 c 0.384,-0.592 0.912,-1.08 1.584,-1.464 0.672,-0.384 1.424,-0.576 2.256,-0.576 0.592,0 1.136,0.096 1.632,0.288 0.512,0.192 0.944,0.464 1.296,0.816 0.352,0.336 0.608,0.728 0.768,1.176 0.464,-0.688 1.056,-1.24 1.776,-1.656 0.72,-0.416 1.496,-0.624 2.328,-0.624 z m 10.3584,12.48 c -0.848,0 -1.592,-0.144 -2.232,-0.432 -0.64,-0.304 -1.136,-0.72 -1.488,-1.248 -0.336,-0.528 -0.504,-1.136 -0.504,-1.824 0,-0.8 0.184,-1.472 0.552,-2.016 0.384,-0.56 0.976,-1 1.776,-1.32 0.8,-0.336 1.824,-0.576 3.072,-0.72 l 2.76,-0.264 v 1.92 l -2.64,0.336 c -0.704,0.08 -1.264,0.2 -1.68,0.36 -0.416,0.144 -0.728,0.344 -0.936,0.6 -0.192,0.256 -0.288,0.584 -0.288,0.984 0,0.48 0.184,0.856 0.552,1.128 0.368,0.272 0.864,0.408 1.488,0.408 0.624,0 1.176,-0.152 1.656,-0.456 0.48,-0.304 0.856,-0.712 1.128,-1.224 0.272,-0.528 0.408,-1.112 0.408,-1.752 v -2.592 c 0,-0.464 -0.104,-0.864 -0.312,-1.2 -0.208,-0.352 -0.504,-0.616 -0.888,-0.792 -0.384,-0.176 -0.832,-0.264 -1.344,-0.264 -0.48,0 -0.904,0.088 -1.272,0.264 -0.368,0.16 -0.672,0.408 -0.912,0.744 -0.224,0.32 -0.36,0.712 -0.408,1.176 h -2.64 c 0.112,-0.8 0.392,-1.528 0.84,-2.184 0.464,-0.656 1.072,-1.168 1.824,-1.536 0.752,-0.384 1.608,-0.576 2.568,-0.576 1.008,0 1.904,0.184 2.688,0.552 0.784,0.368 1.392,0.904 1.824,1.608 0.448,0.704 0.672,1.544 0.672,2.52 v 7.608 h -2.64 V 51.86 c -0.256,0.544 -0.728,1.008 -1.416,1.392 -0.672,0.368 -1.408,0.552 -2.208,0.552 z m 8.5791,-16.992 h 3.528 l 5.784,9.744 c 0.64,1.232 1.192,2.368 1.656,3.408 -0.048,-1.136 -0.072,-2.4 -0.072,-3.792 v -9.36 h 2.832 v 16.8 h -3.528 l -5.784,-9.744 c -0.64,-1.232 -1.192,-2.368 -1.656,-3.408 0.048,1.12 0.072,2.384 0.072,3.792 v 9.36 h -2.832 z m 21.723,16.992 c -1.184,0 -2.256,-0.264 -3.216,-0.792 -0.944,-0.544 -1.688,-1.288 -2.232,-2.232 -0.528,-0.944 -0.792,-2.016 -0.792,-3.216 0,-1.216 0.264,-2.296 0.792,-3.24 0.544,-0.944 1.288,-1.68 2.232,-2.208 0.944,-0.528 2.016,-0.792 3.216,-0.792 1.2,0 2.272,0.264 3.216,0.792 0.944,0.528 1.68,1.264 2.208,2.208 0.544,0.944 0.816,2.016 0.816,3.216 0,1.2 -0.272,2.28 -0.816,3.24 -0.528,0.944 -1.272,1.688 -2.232,2.232 -0.944,0.528 -2.008,0.792 -3.192,0.792 z m 0,-2.256 c 0.688,0 1.304,-0.168 1.848,-0.504 0.544,-0.336 0.968,-0.808 1.272,-1.416 0.304,-0.608 0.456,-1.296 0.456,-2.064 0,-0.784 -0.152,-1.472 -0.456,-2.064 -0.304,-0.608 -0.728,-1.08 -1.272,-1.416 -0.544,-0.336 -1.16,-0.504 -1.848,-0.504 -0.688,0 -1.304,0.168 -1.848,0.504 -0.544,0.336 -0.968,0.808 -1.272,1.416 -0.304,0.592 -0.456,1.272 -0.456,2.04 0,0.784 0.152,1.48 0.456,2.088 0.304,0.608 0.728,1.08 1.272,1.416 0.544,0.336 1.16,0.504 1.848,0.504 z m 7.9916,-10.032 h 2.616 v 12.096 h -2.616 z m -0.12,-5.016 h 2.808 v 2.784 h -2.808 z M 105.001,53.804 c -1.184,0 -2.232,-0.256 -3.144,-0.768 -0.896,-0.512 -1.5921,-1.24 -2.088101,-2.184 -0.496,-0.944 -0.744,-2.04 -0.744,-3.288 0,-1.248 0.248,-2.344 0.744,-3.288 0.496001,-0.944 1.192101,-1.672 2.088101,-2.184 0.912,-0.512 1.96,-0.768 3.144,-0.768 0.832,0 1.6,0.176 2.304,0.528 0.72,0.336 1.248,0.784 1.584,1.344 V 36.62 h 2.64 v 16.992 h -2.64 v -1.704 c -0.336,0.576 -0.864,1.04 -1.584,1.392 -0.704,0.336 -1.472,0.504 -2.304,0.504 z m 0.288,-2.256 c 0.704,0 1.328,-0.168 1.872,-0.504 0.544,-0.352 0.968,-0.824 1.272,-1.416 0.304,-0.608 0.456,-1.296 0.456,-2.064 0,-0.768 -0.152,-1.456 -0.456,-2.064 -0.304,-0.608 -0.728,-1.08 -1.272,-1.416 -0.544,-0.336 -1.168,-0.504 -1.872,-0.504 -0.688,0 -1.304,0.168 -1.848,0.504 -0.544,0.336 -0.968,0.808 -1.272,1.416 -0.304,0.608 -0.456,1.296 -0.456,2.064 0,0.768 0.152,1.456 0.456,2.064 0.304,0.608 0.728,1.08 1.272,1.416 0.544,0.336 1.16,0.504 1.848,0.504 z"
     fill="#fffbf8"
     id="path1" />
</svg>
