<svg width="118" height="26" viewBox="0 0 118 26" fill="none" xmlns="http://www.w3.org/2000/svg">
<path d="M12.576 5.2H15.408V22H12.576V5.2ZM1.68 5.2H4.512V22H1.68V5.2ZM4.368 11.992H12.72V14.416H4.368V11.992ZM22.2733 22.192C21.4093 22.192 20.6333 22.016 19.9453 21.664C19.2733 21.296 18.7453 20.776 18.3613 20.104C17.9773 19.416 17.7853 18.592 17.7853 17.632V9.904H20.4253V17.152C20.4253 18.016 20.6493 18.688 21.0973 19.168C21.5453 19.648 22.1613 19.888 22.9453 19.888C23.6493 19.888 24.2493 19.696 24.7453 19.312C25.2573 18.928 25.6493 18.376 25.9213 17.656C26.1933 16.936 26.3293 16.088 26.3293 15.112V9.904H28.9693V22H26.3293V20.128C25.9613 20.752 25.4173 21.256 24.6973 21.64C23.9933 22.008 23.1853 22.192 22.2733 22.192ZM45.6741 9.712C46.5221 9.712 47.2741 9.896 47.9301 10.264C48.6021 10.616 49.1141 11.12 49.4661 11.776C49.8341 12.432 50.0181 13.2 50.0181 14.08V22H47.4021V14.656C47.4021 14.112 47.3061 13.648 47.1141 13.264C46.9381 12.864 46.6741 12.56 46.3221 12.352C45.9861 12.128 45.5781 12.016 45.0981 12.016C44.4741 12.016 43.9301 12.2 43.4661 12.568C43.0021 12.92 42.6421 13.4 42.3861 14.008C42.1461 14.616 42.0261 15.296 42.0261 16.048V22H39.4101V14.656C39.4101 14.112 39.3141 13.648 39.1221 13.264C38.9461 12.864 38.6821 12.56 38.3301 12.352C37.9941 12.128 37.5861 12.016 37.1061 12.016C36.4981 12.016 35.9541 12.2 35.4741 12.568C35.0101 12.92 34.6501 13.4 34.3941 14.008C34.1541 14.616 34.0341 15.296 34.0341 16.048V22H31.4181V9.904H34.0341V11.752C34.4181 11.16 34.9461 10.672 35.6181 10.288C36.2901 9.904 37.0421 9.712 37.8741 9.712C38.4661 9.712 39.0101 9.808 39.5061 10C40.0181 10.192 40.4501 10.464 40.8021 10.816C41.1541 11.152 41.4101 11.544 41.5701 11.992C42.0341 11.304 42.6261 10.752 43.3461 10.336C44.0661 9.92 44.8421 9.712 45.6741 9.712ZM56.0325 22.192C55.1845 22.192 54.4405 22.048 53.8005 21.76C53.1605 21.456 52.6645 21.04 52.3125 20.512C51.9765 19.984 51.8085 19.376 51.8085 18.688C51.8085 17.888 51.9925 17.216 52.3605 16.672C52.7445 16.112 53.3365 15.672 54.1365 15.352C54.9365 15.016 55.9605 14.776 57.2085 14.632L59.9685 14.368V16.288L57.3285 16.624C56.6245 16.704 56.0645 16.824 55.6485 16.984C55.2325 17.128 54.9205 17.328 54.7125 17.584C54.5205 17.84 54.4245 18.168 54.4245 18.568C54.4245 19.048 54.6085 19.424 54.9765 19.696C55.3445 19.968 55.8405 20.104 56.4645 20.104C57.0885 20.104 57.6405 19.952 58.1205 19.648C58.6005 19.344 58.9765 18.936 59.2485 18.424C59.5205 17.896 59.6565 17.312 59.6565 16.672V14.08C59.6565 13.616 59.5525 13.216 59.3445 12.88C59.1365 12.528 58.8405 12.264 58.4565 12.088C58.0725 11.912 57.6245 11.824 57.1125 11.824C56.6325 11.824 56.2085 11.912 55.8405 12.088C55.4725 12.248 55.1685 12.496 54.9285 12.832C54.7045 13.152 54.5685 13.544 54.5205 14.008H51.8805C51.9925 13.208 52.2725 12.48 52.7205 11.824C53.1845 11.168 53.7925 10.656 54.5445 10.288C55.2965 9.904 56.1525 9.712 57.1125 9.712C58.1205 9.712 59.0165 9.896 59.8005 10.264C60.5845 10.632 61.1925 11.168 61.6245 11.872C62.0725 12.576 62.2965 13.416 62.2965 14.392V22H59.6565V20.248C59.4005 20.792 58.9285 21.256 58.2405 21.64C57.5685 22.008 56.8325 22.192 56.0325 22.192ZM64.6116 5.2H68.1396L73.9236 14.944C74.5636 16.176 75.1156 17.312 75.5796 18.352C75.5316 17.216 75.5076 15.952 75.5076 14.56V5.2H78.3396V22H74.8116L69.0276 12.256C68.3876 11.024 67.8356 9.888 67.3716 8.848C67.4196 9.968 67.4436 11.232 67.4436 12.64V22H64.6116V5.2ZM86.3346 22.192C85.1506 22.192 84.0786 21.928 83.1186 21.4C82.1746 20.856 81.4306 20.112 80.8866 19.168C80.3586 18.224 80.0946 17.152 80.0946 15.952C80.0946 14.736 80.3586 13.656 80.8866 12.712C81.4306 11.768 82.1746 11.032 83.1186 10.504C84.0626 9.976 85.1346 9.712 86.3346 9.712C87.5346 9.712 88.6066 9.976 89.5506 10.504C90.4946 11.032 91.2306 11.768 91.7586 12.712C92.3026 13.656 92.5746 14.728 92.5746 15.928C92.5746 17.128 92.3026 18.208 91.7586 19.168C91.2306 20.112 90.4866 20.856 89.5266 21.4C88.5826 21.928 87.5186 22.192 86.3346 22.192ZM86.3346 19.936C87.0226 19.936 87.6386 19.768 88.1826 19.432C88.7266 19.096 89.1506 18.624 89.4546 18.016C89.7586 17.408 89.9106 16.72 89.9106 15.952C89.9106 15.168 89.7586 14.48 89.4546 13.888C89.1506 13.28 88.7266 12.808 88.1826 12.472C87.6386 12.136 87.0226 11.968 86.3346 11.968C85.6466 11.968 85.0306 12.136 84.4866 12.472C83.9426 12.808 83.5186 13.28 83.2146 13.888C82.9106 14.48 82.7586 15.16 82.7586 15.928C82.7586 16.712 82.9106 17.408 83.2146 18.016C83.5186 18.624 83.9426 19.096 84.4866 19.432C85.0306 19.768 85.6466 19.936 86.3346 19.936ZM94.3262 9.904H96.9422V22H94.3262V9.904ZM94.2062 4.888H97.0142V7.672H94.2062V4.888ZM104.681 22.192C103.497 22.192 102.449 21.936 101.537 21.424C100.641 20.912 99.9449 20.184 99.4489 19.24C98.9529 18.296 98.7049 17.2 98.7049 15.952C98.7049 14.704 98.9529 13.608 99.4489 12.664C99.9449 11.72 100.641 10.992 101.537 10.48C102.449 9.968 103.497 9.712 104.681 9.712C105.513 9.712 106.281 9.888 106.985 10.24C107.705 10.576 108.233 11.024 108.569 11.584V5.008H111.209V22H108.569V20.296C108.233 20.872 107.705 21.336 106.985 21.688C106.281 22.024 105.513 22.192 104.681 22.192ZM104.969 19.936C105.673 19.936 106.297 19.768 106.841 19.432C107.385 19.08 107.809 18.608 108.113 18.016C108.417 17.408 108.569 16.72 108.569 15.952C108.569 15.184 108.417 14.496 108.113 13.888C107.809 13.28 107.385 12.808 106.841 12.472C106.297 12.136 105.673 11.968 104.969 11.968C104.281 11.968 103.665 12.136 103.121 12.472C102.577 12.808 102.153 13.28 101.849 13.888C101.545 14.496 101.393 15.184 101.393 15.952C101.393 16.72 101.545 17.408 101.849 18.016C102.153 18.624 102.577 19.096 103.121 19.432C103.665 19.768 104.281 19.936 104.969 19.936Z" fill="#FFFBF8"/>
</svg>
