<?xml version="1.0" encoding="utf-8" standalone="no"?>
<!DOCTYPE svg PUBLIC "-//W3C//DTD SVG 1.1//EN"
  "http://www.w3.org/Graphics/SVG/1.1/DTD/svg11.dtd">
<!-- Created with matplotlib (https://matplotlib.org/) -->
<svg height="345.6pt" version="1.1" viewBox="0 0 460.8 345.6" width="460.8pt" xmlns="http://www.w3.org/2000/svg" xmlns:xlink="http://www.w3.org/1999/xlink">
 <metadata>
  <rdf:RDF xmlns:cc="http://creativecommons.org/ns#" xmlns:dc="http://purl.org/dc/elements/1.1/" xmlns:rdf="http://www.w3.org/1999/02/22-rdf-syntax-ns#">
   <cc:Work>
    <dc:type rdf:resource="http://purl.org/dc/dcmitype/StillImage"/>
    <dc:date>2021-07-12T23:36:02.475234</dc:date>
    <dc:format>image/svg+xml</dc:format>
    <dc:creator>
     <cc:Agent>
      <dc:title>Matplotlib v3.3.4, https://matplotlib.org/</dc:title>
     </cc:Agent>
    </dc:creator>
   </cc:Work>
  </rdf:RDF>
 </metadata>
 <defs>
  <style type="text/css">*{stroke-linecap:butt;stroke-linejoin:round;}</style>
 </defs>
 <g id="figure_1">
  <g id="patch_1">
   <path d="M 0 345.6 
L 460.8 345.6 
L 460.8 0 
L 0 0 
z
" style="fill:#ffffff;"/>
  </g>
  <g id="axes_1">
   <g id="patch_2">
    <path d="M 57.6 307.584 
L 414.72 307.584 
L 414.72 41.472 
L 57.6 41.472 
z
" style="fill:#ffffff;"/>
   </g>
   <g id="matplotlib.axis_1">
    <g id="xtick_1">
     <g id="line2d_1">
      <defs>
       <path d="M 0 0 
L 0 3.5 
" id="m359bd09dcf" style="stroke:#000000;stroke-width:0.8;"/>
      </defs>
      <g>
       <use style="stroke:#000000;stroke-width:0.8;" x="73.832727" xlink:href="#m359bd09dcf" y="307.584"/>
      </g>
     </g>
     <g id="text_1">
      <!-- 0 -->
      <g transform="translate(70.651477 322.182437)scale(0.1 -0.1)">
       <defs>
        <path d="M 31.78125 66.40625 
Q 24.171875 66.40625 20.328125 58.90625 
Q 16.5 51.421875 16.5 36.375 
Q 16.5 21.390625 20.328125 13.890625 
Q 24.171875 6.390625 31.78125 6.390625 
Q 39.453125 6.390625 43.28125 13.890625 
Q 47.125 21.390625 47.125 36.375 
Q 47.125 51.421875 43.28125 58.90625 
Q 39.453125 66.40625 31.78125 66.40625 
z
M 31.78125 74.21875 
Q 44.046875 74.21875 50.515625 64.515625 
Q 56.984375 54.828125 56.984375 36.375 
Q 56.984375 17.96875 50.515625 8.265625 
Q 44.046875 -1.421875 31.78125 -1.421875 
Q 19.53125 -1.421875 13.0625 8.265625 
Q 6.59375 17.96875 6.59375 36.375 
Q 6.59375 54.828125 13.0625 64.515625 
Q 19.53125 74.21875 31.78125 74.21875 
z
" id="DejaVuSans-48"/>
       </defs>
       <use xlink:href="#DejaVuSans-48"/>
      </g>
     </g>
    </g>
    <g id="xtick_2">
     <g id="line2d_2">
      <g>
       <use style="stroke:#000000;stroke-width:0.8;" x="118.948701" xlink:href="#m359bd09dcf" y="307.584"/>
      </g>
     </g>
     <g id="text_2">
      <!-- 250 -->
      <g transform="translate(109.404951 322.182437)scale(0.1 -0.1)">
       <defs>
        <path d="M 19.1875 8.296875 
L 53.609375 8.296875 
L 53.609375 0 
L 7.328125 0 
L 7.328125 8.296875 
Q 12.9375 14.109375 22.625 23.890625 
Q 32.328125 33.6875 34.8125 36.53125 
Q 39.546875 41.84375 41.421875 45.53125 
Q 43.3125 49.21875 43.3125 52.78125 
Q 43.3125 58.59375 39.234375 62.25 
Q 35.15625 65.921875 28.609375 65.921875 
Q 23.96875 65.921875 18.8125 64.3125 
Q 13.671875 62.703125 7.8125 59.421875 
L 7.8125 69.390625 
Q 13.765625 71.78125 18.9375 73 
Q 24.125 74.21875 28.421875 74.21875 
Q 39.75 74.21875 46.484375 68.546875 
Q 53.21875 62.890625 53.21875 53.421875 
Q 53.21875 48.921875 51.53125 44.890625 
Q 49.859375 40.875 45.40625 35.40625 
Q 44.1875 33.984375 37.640625 27.21875 
Q 31.109375 20.453125 19.1875 8.296875 
z
" id="DejaVuSans-50"/>
        <path d="M 10.796875 72.90625 
L 49.515625 72.90625 
L 49.515625 64.59375 
L 19.828125 64.59375 
L 19.828125 46.734375 
Q 21.96875 47.46875 24.109375 47.828125 
Q 26.265625 48.1875 28.421875 48.1875 
Q 40.625 48.1875 47.75 41.5 
Q 54.890625 34.8125 54.890625 23.390625 
Q 54.890625 11.625 47.5625 5.09375 
Q 40.234375 -1.421875 26.90625 -1.421875 
Q 22.3125 -1.421875 17.546875 -0.640625 
Q 12.796875 0.140625 7.71875 1.703125 
L 7.71875 11.625 
Q 12.109375 9.234375 16.796875 8.0625 
Q 21.484375 6.890625 26.703125 6.890625 
Q 35.15625 6.890625 40.078125 11.328125 
Q 45.015625 15.765625 45.015625 23.390625 
Q 45.015625 31 40.078125 35.4375 
Q 35.15625 39.890625 26.703125 39.890625 
Q 22.75 39.890625 18.8125 39.015625 
Q 14.890625 38.140625 10.796875 36.28125 
z
" id="DejaVuSans-53"/>
       </defs>
       <use xlink:href="#DejaVuSans-50"/>
       <use x="63.623047" xlink:href="#DejaVuSans-53"/>
       <use x="127.246094" xlink:href="#DejaVuSans-48"/>
      </g>
     </g>
    </g>
    <g id="xtick_3">
     <g id="line2d_3">
      <g>
       <use style="stroke:#000000;stroke-width:0.8;" x="164.064674" xlink:href="#m359bd09dcf" y="307.584"/>
      </g>
     </g>
     <g id="text_3">
      <!-- 500 -->
      <g transform="translate(154.520924 322.182437)scale(0.1 -0.1)">
       <use xlink:href="#DejaVuSans-53"/>
       <use x="63.623047" xlink:href="#DejaVuSans-48"/>
       <use x="127.246094" xlink:href="#DejaVuSans-48"/>
      </g>
     </g>
    </g>
    <g id="xtick_4">
     <g id="line2d_4">
      <g>
       <use style="stroke:#000000;stroke-width:0.8;" x="209.180648" xlink:href="#m359bd09dcf" y="307.584"/>
      </g>
     </g>
     <g id="text_4">
      <!-- 750 -->
      <g transform="translate(199.636898 322.182437)scale(0.1 -0.1)">
       <defs>
        <path d="M 8.203125 72.90625 
L 55.078125 72.90625 
L 55.078125 68.703125 
L 28.609375 0 
L 18.3125 0 
L 43.21875 64.59375 
L 8.203125 64.59375 
z
" id="DejaVuSans-55"/>
       </defs>
       <use xlink:href="#DejaVuSans-55"/>
       <use x="63.623047" xlink:href="#DejaVuSans-53"/>
       <use x="127.246094" xlink:href="#DejaVuSans-48"/>
      </g>
     </g>
    </g>
    <g id="xtick_5">
     <g id="line2d_5">
      <g>
       <use style="stroke:#000000;stroke-width:0.8;" x="254.296621" xlink:href="#m359bd09dcf" y="307.584"/>
      </g>
     </g>
     <g id="text_5">
      <!-- 1000 -->
      <g transform="translate(241.571621 322.182437)scale(0.1 -0.1)">
       <defs>
        <path d="M 12.40625 8.296875 
L 28.515625 8.296875 
L 28.515625 63.921875 
L 10.984375 60.40625 
L 10.984375 69.390625 
L 28.421875 72.90625 
L 38.28125 72.90625 
L 38.28125 8.296875 
L 54.390625 8.296875 
L 54.390625 0 
L 12.40625 0 
z
" id="DejaVuSans-49"/>
       </defs>
       <use xlink:href="#DejaVuSans-49"/>
       <use x="63.623047" xlink:href="#DejaVuSans-48"/>
       <use x="127.246094" xlink:href="#DejaVuSans-48"/>
       <use x="190.869141" xlink:href="#DejaVuSans-48"/>
      </g>
     </g>
    </g>
    <g id="xtick_6">
     <g id="line2d_6">
      <g>
       <use style="stroke:#000000;stroke-width:0.8;" x="299.412595" xlink:href="#m359bd09dcf" y="307.584"/>
      </g>
     </g>
     <g id="text_6">
      <!-- 1250 -->
      <g transform="translate(286.687595 322.182437)scale(0.1 -0.1)">
       <use xlink:href="#DejaVuSans-49"/>
       <use x="63.623047" xlink:href="#DejaVuSans-50"/>
       <use x="127.246094" xlink:href="#DejaVuSans-53"/>
       <use x="190.869141" xlink:href="#DejaVuSans-48"/>
      </g>
     </g>
    </g>
    <g id="xtick_7">
     <g id="line2d_7">
      <g>
       <use style="stroke:#000000;stroke-width:0.8;" x="344.528568" xlink:href="#m359bd09dcf" y="307.584"/>
      </g>
     </g>
     <g id="text_7">
      <!-- 1500 -->
      <g transform="translate(331.803568 322.182437)scale(0.1 -0.1)">
       <use xlink:href="#DejaVuSans-49"/>
       <use x="63.623047" xlink:href="#DejaVuSans-53"/>
       <use x="127.246094" xlink:href="#DejaVuSans-48"/>
       <use x="190.869141" xlink:href="#DejaVuSans-48"/>
      </g>
     </g>
    </g>
    <g id="xtick_8">
     <g id="line2d_8">
      <g>
       <use style="stroke:#000000;stroke-width:0.8;" x="389.644542" xlink:href="#m359bd09dcf" y="307.584"/>
      </g>
     </g>
     <g id="text_8">
      <!-- 1750 -->
      <g transform="translate(376.919542 322.182437)scale(0.1 -0.1)">
       <use xlink:href="#DejaVuSans-49"/>
       <use x="63.623047" xlink:href="#DejaVuSans-55"/>
       <use x="127.246094" xlink:href="#DejaVuSans-53"/>
       <use x="190.869141" xlink:href="#DejaVuSans-48"/>
      </g>
     </g>
    </g>
    <g id="text_9">
     <!-- Episode # -->
     <g transform="translate(210.743594 335.860562)scale(0.1 -0.1)">
      <defs>
       <path d="M 9.8125 72.90625 
L 55.90625 72.90625 
L 55.90625 64.59375 
L 19.671875 64.59375 
L 19.671875 43.015625 
L 54.390625 43.015625 
L 54.390625 34.71875 
L 19.671875 34.71875 
L 19.671875 8.296875 
L 56.78125 8.296875 
L 56.78125 0 
L 9.8125 0 
z
" id="DejaVuSans-69"/>
       <path d="M 18.109375 8.203125 
L 18.109375 -20.796875 
L 9.078125 -20.796875 
L 9.078125 54.6875 
L 18.109375 54.6875 
L 18.109375 46.390625 
Q 20.953125 51.265625 25.265625 53.625 
Q 29.59375 56 35.59375 56 
Q 45.5625 56 51.78125 48.09375 
Q 58.015625 40.1875 58.015625 27.296875 
Q 58.015625 14.40625 51.78125 6.484375 
Q 45.5625 -1.421875 35.59375 -1.421875 
Q 29.59375 -1.421875 25.265625 0.953125 
Q 20.953125 3.328125 18.109375 8.203125 
z
M 48.6875 27.296875 
Q 48.6875 37.203125 44.609375 42.84375 
Q 40.53125 48.484375 33.40625 48.484375 
Q 26.265625 48.484375 22.1875 42.84375 
Q 18.109375 37.203125 18.109375 27.296875 
Q 18.109375 17.390625 22.1875 11.75 
Q 26.265625 6.109375 33.40625 6.109375 
Q 40.53125 6.109375 44.609375 11.75 
Q 48.6875 17.390625 48.6875 27.296875 
z
" id="DejaVuSans-112"/>
       <path d="M 9.421875 54.6875 
L 18.40625 54.6875 
L 18.40625 0 
L 9.421875 0 
z
M 9.421875 75.984375 
L 18.40625 75.984375 
L 18.40625 64.59375 
L 9.421875 64.59375 
z
" id="DejaVuSans-105"/>
       <path d="M 44.28125 53.078125 
L 44.28125 44.578125 
Q 40.484375 46.53125 36.375 47.5 
Q 32.28125 48.484375 27.875 48.484375 
Q 21.1875 48.484375 17.84375 46.4375 
Q 14.5 44.390625 14.5 40.28125 
Q 14.5 37.15625 16.890625 35.375 
Q 19.28125 33.59375 26.515625 31.984375 
L 29.59375 31.296875 
Q 39.15625 29.25 43.1875 25.515625 
Q 47.21875 21.78125 47.21875 15.09375 
Q 47.21875 7.46875 41.1875 3.015625 
Q 35.15625 -1.421875 24.609375 -1.421875 
Q 20.21875 -1.421875 15.453125 -0.5625 
Q 10.6875 0.296875 5.421875 2 
L 5.421875 11.28125 
Q 10.40625 8.6875 15.234375 7.390625 
Q 20.0625 6.109375 24.8125 6.109375 
Q 31.15625 6.109375 34.5625 8.28125 
Q 37.984375 10.453125 37.984375 14.40625 
Q 37.984375 18.0625 35.515625 20.015625 
Q 33.0625 21.96875 24.703125 23.78125 
L 21.578125 24.515625 
Q 13.234375 26.265625 9.515625 29.90625 
Q 5.8125 33.546875 5.8125 39.890625 
Q 5.8125 47.609375 11.28125 51.796875 
Q 16.75 56 26.8125 56 
Q 31.78125 56 36.171875 55.265625 
Q 40.578125 54.546875 44.28125 53.078125 
z
" id="DejaVuSans-115"/>
       <path d="M 30.609375 48.390625 
Q 23.390625 48.390625 19.1875 42.75 
Q 14.984375 37.109375 14.984375 27.296875 
Q 14.984375 17.484375 19.15625 11.84375 
Q 23.34375 6.203125 30.609375 6.203125 
Q 37.796875 6.203125 41.984375 11.859375 
Q 46.1875 17.53125 46.1875 27.296875 
Q 46.1875 37.015625 41.984375 42.703125 
Q 37.796875 48.390625 30.609375 48.390625 
z
M 30.609375 56 
Q 42.328125 56 49.015625 48.375 
Q 55.71875 40.765625 55.71875 27.296875 
Q 55.71875 13.875 49.015625 6.21875 
Q 42.328125 -1.421875 30.609375 -1.421875 
Q 18.84375 -1.421875 12.171875 6.21875 
Q 5.515625 13.875 5.515625 27.296875 
Q 5.515625 40.765625 12.171875 48.375 
Q 18.84375 56 30.609375 56 
z
" id="DejaVuSans-111"/>
       <path d="M 45.40625 46.390625 
L 45.40625 75.984375 
L 54.390625 75.984375 
L 54.390625 0 
L 45.40625 0 
L 45.40625 8.203125 
Q 42.578125 3.328125 38.25 0.953125 
Q 33.9375 -1.421875 27.875 -1.421875 
Q 17.96875 -1.421875 11.734375 6.484375 
Q 5.515625 14.40625 5.515625 27.296875 
Q 5.515625 40.1875 11.734375 48.09375 
Q 17.96875 56 27.875 56 
Q 33.9375 56 38.25 53.625 
Q 42.578125 51.265625 45.40625 46.390625 
z
M 14.796875 27.296875 
Q 14.796875 17.390625 18.875 11.75 
Q 22.953125 6.109375 30.078125 6.109375 
Q 37.203125 6.109375 41.296875 11.75 
Q 45.40625 17.390625 45.40625 27.296875 
Q 45.40625 37.203125 41.296875 42.84375 
Q 37.203125 48.484375 30.078125 48.484375 
Q 22.953125 48.484375 18.875 42.84375 
Q 14.796875 37.203125 14.796875 27.296875 
z
" id="DejaVuSans-100"/>
       <path d="M 56.203125 29.59375 
L 56.203125 25.203125 
L 14.890625 25.203125 
Q 15.484375 15.921875 20.484375 11.0625 
Q 25.484375 6.203125 34.421875 6.203125 
Q 39.59375 6.203125 44.453125 7.46875 
Q 49.3125 8.734375 54.109375 11.28125 
L 54.109375 2.78125 
Q 49.265625 0.734375 44.1875 -0.34375 
Q 39.109375 -1.421875 33.890625 -1.421875 
Q 20.796875 -1.421875 13.15625 6.1875 
Q 5.515625 13.8125 5.515625 26.8125 
Q 5.515625 40.234375 12.765625 48.109375 
Q 20.015625 56 32.328125 56 
Q 43.359375 56 49.78125 48.890625 
Q 56.203125 41.796875 56.203125 29.59375 
z
M 47.21875 32.234375 
Q 47.125 39.59375 43.09375 43.984375 
Q 39.0625 48.390625 32.421875 48.390625 
Q 24.90625 48.390625 20.390625 44.140625 
Q 15.875 39.890625 15.1875 32.171875 
z
" id="DejaVuSans-101"/>
       <path id="DejaVuSans-32"/>
       <path d="M 51.125 44 
L 36.921875 44 
L 32.8125 27.6875 
L 47.125 27.6875 
z
M 43.796875 71.78125 
L 38.71875 51.515625 
L 52.984375 51.515625 
L 58.109375 71.78125 
L 65.921875 71.78125 
L 60.890625 51.515625 
L 76.125 51.515625 
L 76.125 44 
L 58.984375 44 
L 54.984375 27.6875 
L 70.515625 27.6875 
L 70.515625 20.21875 
L 53.078125 20.21875 
L 48 0 
L 40.1875 0 
L 45.21875 20.21875 
L 30.90625 20.21875 
L 25.875 0 
L 18.015625 0 
L 23.09375 20.21875 
L 7.71875 20.21875 
L 7.71875 27.6875 
L 24.90625 27.6875 
L 29 44 
L 13.28125 44 
L 13.28125 51.515625 
L 30.90625 51.515625 
L 35.890625 71.78125 
z
" id="DejaVuSans-35"/>
      </defs>
      <use xlink:href="#DejaVuSans-69"/>
      <use x="63.183594" xlink:href="#DejaVuSans-112"/>
      <use x="126.660156" xlink:href="#DejaVuSans-105"/>
      <use x="154.443359" xlink:href="#DejaVuSans-115"/>
      <use x="206.542969" xlink:href="#DejaVuSans-111"/>
      <use x="267.724609" xlink:href="#DejaVuSans-100"/>
      <use x="331.201172" xlink:href="#DejaVuSans-101"/>
      <use x="392.724609" xlink:href="#DejaVuSans-32"/>
      <use x="424.511719" xlink:href="#DejaVuSans-35"/>
     </g>
    </g>
   </g>
   <g id="matplotlib.axis_2">
    <g id="ytick_1">
     <g id="line2d_9">
      <defs>
       <path d="M 0 0 
L -3.5 0 
" id="m777b9f03bc" style="stroke:#000000;stroke-width:0.8;"/>
      </defs>
      <g>
       <use style="stroke:#000000;stroke-width:0.8;" x="57.6" xlink:href="#m777b9f03bc" y="269.568"/>
      </g>
     </g>
     <g id="text_10">
      <!-- 0 -->
      <g transform="translate(44.2375 273.367219)scale(0.1 -0.1)">
       <use xlink:href="#DejaVuSans-48"/>
      </g>
     </g>
    </g>
    <g id="ytick_2">
     <g id="line2d_10">
      <g>
       <use style="stroke:#000000;stroke-width:0.8;" x="57.6" xlink:href="#m777b9f03bc" y="226.368"/>
      </g>
     </g>
     <g id="text_11">
      <!-- 5 -->
      <g transform="translate(44.2375 230.167219)scale(0.1 -0.1)">
       <use xlink:href="#DejaVuSans-53"/>
      </g>
     </g>
    </g>
    <g id="ytick_3">
     <g id="line2d_11">
      <g>
       <use style="stroke:#000000;stroke-width:0.8;" x="57.6" xlink:href="#m777b9f03bc" y="183.168"/>
      </g>
     </g>
     <g id="text_12">
      <!-- 10 -->
      <g transform="translate(37.875 186.967219)scale(0.1 -0.1)">
       <use xlink:href="#DejaVuSans-49"/>
       <use x="63.623047" xlink:href="#DejaVuSans-48"/>
      </g>
     </g>
    </g>
    <g id="ytick_4">
     <g id="line2d_12">
      <g>
       <use style="stroke:#000000;stroke-width:0.8;" x="57.6" xlink:href="#m777b9f03bc" y="139.968"/>
      </g>
     </g>
     <g id="text_13">
      <!-- 15 -->
      <g transform="translate(37.875 143.767219)scale(0.1 -0.1)">
       <use xlink:href="#DejaVuSans-49"/>
       <use x="63.623047" xlink:href="#DejaVuSans-53"/>
      </g>
     </g>
    </g>
    <g id="ytick_5">
     <g id="line2d_13">
      <g>
       <use style="stroke:#000000;stroke-width:0.8;" x="57.6" xlink:href="#m777b9f03bc" y="96.768"/>
      </g>
     </g>
     <g id="text_14">
      <!-- 20 -->
      <g transform="translate(37.875 100.567219)scale(0.1 -0.1)">
       <use xlink:href="#DejaVuSans-50"/>
       <use x="63.623047" xlink:href="#DejaVuSans-48"/>
      </g>
     </g>
    </g>
    <g id="ytick_6">
     <g id="line2d_14">
      <g>
       <use style="stroke:#000000;stroke-width:0.8;" x="57.6" xlink:href="#m777b9f03bc" y="53.568"/>
      </g>
     </g>
     <g id="text_15">
      <!-- 25 -->
      <g transform="translate(37.875 57.367219)scale(0.1 -0.1)">
       <use xlink:href="#DejaVuSans-50"/>
       <use x="63.623047" xlink:href="#DejaVuSans-53"/>
      </g>
     </g>
    </g>
    <g id="text_16">
     <!-- Score -->
     <g transform="translate(31.795313 188.530344)rotate(-90)scale(0.1 -0.1)">
      <defs>
       <path d="M 53.515625 70.515625 
L 53.515625 60.890625 
Q 47.90625 63.578125 42.921875 64.890625 
Q 37.9375 66.21875 33.296875 66.21875 
Q 25.25 66.21875 20.875 63.09375 
Q 16.5 59.96875 16.5 54.203125 
Q 16.5 49.359375 19.40625 46.890625 
Q 22.3125 44.4375 30.421875 42.921875 
L 36.375 41.703125 
Q 47.40625 39.59375 52.65625 34.296875 
Q 57.90625 29 57.90625 20.125 
Q 57.90625 9.515625 50.796875 4.046875 
Q 43.703125 -1.421875 29.984375 -1.421875 
Q 24.8125 -1.421875 18.96875 -0.25 
Q 13.140625 0.921875 6.890625 3.21875 
L 6.890625 13.375 
Q 12.890625 10.015625 18.65625 8.296875 
Q 24.421875 6.59375 29.984375 6.59375 
Q 38.421875 6.59375 43.015625 9.90625 
Q 47.609375 13.234375 47.609375 19.390625 
Q 47.609375 24.75 44.3125 27.78125 
Q 41.015625 30.8125 33.5 32.328125 
L 27.484375 33.5 
Q 16.453125 35.6875 11.515625 40.375 
Q 6.59375 45.0625 6.59375 53.421875 
Q 6.59375 63.09375 13.40625 68.65625 
Q 20.21875 74.21875 32.171875 74.21875 
Q 37.3125 74.21875 42.625 73.28125 
Q 47.953125 72.359375 53.515625 70.515625 
z
" id="DejaVuSans-83"/>
       <path d="M 48.78125 52.59375 
L 48.78125 44.1875 
Q 44.96875 46.296875 41.140625 47.34375 
Q 37.3125 48.390625 33.40625 48.390625 
Q 24.65625 48.390625 19.8125 42.84375 
Q 14.984375 37.3125 14.984375 27.296875 
Q 14.984375 17.28125 19.8125 11.734375 
Q 24.65625 6.203125 33.40625 6.203125 
Q 37.3125 6.203125 41.140625 7.25 
Q 44.96875 8.296875 48.78125 10.40625 
L 48.78125 2.09375 
Q 45.015625 0.34375 40.984375 -0.53125 
Q 36.96875 -1.421875 32.421875 -1.421875 
Q 20.0625 -1.421875 12.78125 6.34375 
Q 5.515625 14.109375 5.515625 27.296875 
Q 5.515625 40.671875 12.859375 48.328125 
Q 20.21875 56 33.015625 56 
Q 37.15625 56 41.109375 55.140625 
Q 45.0625 54.296875 48.78125 52.59375 
z
" id="DejaVuSans-99"/>
       <path d="M 41.109375 46.296875 
Q 39.59375 47.171875 37.8125 47.578125 
Q 36.03125 48 33.890625 48 
Q 26.265625 48 22.1875 43.046875 
Q 18.109375 38.09375 18.109375 28.8125 
L 18.109375 0 
L 9.078125 0 
L 9.078125 54.6875 
L 18.109375 54.6875 
L 18.109375 46.1875 
Q 20.953125 51.171875 25.484375 53.578125 
Q 30.03125 56 36.53125 56 
Q 37.453125 56 38.578125 55.875 
Q 39.703125 55.765625 41.0625 55.515625 
z
" id="DejaVuSans-114"/>
      </defs>
      <use xlink:href="#DejaVuSans-83"/>
      <use x="63.476562" xlink:href="#DejaVuSans-99"/>
      <use x="118.457031" xlink:href="#DejaVuSans-111"/>
      <use x="179.638672" xlink:href="#DejaVuSans-114"/>
      <use x="218.501953" xlink:href="#DejaVuSans-101"/>
     </g>
    </g>
   </g>
   <g id="line2d_15">
    <path clip-path="url(#pdffb61e452)" d="M 73.832727 286.848 
L 74.013191 269.568 
L 74.374119 269.568 
L 74.554583 260.928 
L 74.735047 260.928 
L 74.915511 278.208 
L 75.095975 269.568 
L 75.637366 269.568 
L 75.81783 278.208 
L 76.178758 278.208 
L 76.359222 260.928 
L 76.539686 269.568 
L 76.72015 269.568 
L 76.900613 260.928 
L 77.081077 278.208 
L 77.261541 269.568 
L 77.442005 278.208 
L 77.622469 269.568 
L 78.163861 269.568 
L 78.344325 260.928 
L 78.524789 269.568 
L 78.705252 252.288 
L 79.06618 252.288 
L 79.427108 269.568 
L 79.607572 295.488 
L 79.9685 260.928 
L 80.148964 269.568 
L 80.329427 269.568 
L 80.509891 260.928 
L 80.690355 269.568 
L 80.870819 286.848 
L 81.051283 269.568 
L 81.592675 269.568 
L 81.773139 260.928 
L 81.953603 278.208 
L 82.134066 260.928 
L 82.31453 278.208 
L 82.675458 260.928 
L 82.855922 286.848 
L 83.036386 260.928 
L 83.21685 260.928 
L 83.397314 243.648 
L 83.577778 269.568 
L 83.758241 278.208 
L 83.938705 269.568 
L 84.119169 269.568 
L 84.480097 252.288 
L 84.841025 278.208 
L 85.382416 252.288 
L 85.56288 260.928 
L 85.743344 252.288 
L 85.923808 269.568 
L 86.104272 269.568 
L 86.284736 260.928 
L 86.4652 278.208 
L 86.645664 243.648 
L 86.826128 260.928 
L 87.006592 235.008 
L 87.187055 286.848 
L 87.367519 260.928 
L 87.547983 252.288 
L 87.728447 252.288 
L 87.908911 269.568 
L 88.089375 269.568 
L 88.269839 252.288 
L 88.450303 252.288 
L 88.630767 269.568 
L 88.81123 260.928 
L 88.991694 260.928 
L 89.172158 243.648 
L 89.352622 269.568 
L 89.533086 243.648 
L 89.71355 269.568 
L 89.894014 252.288 
L 90.074478 252.288 
L 90.254942 269.568 
L 90.435406 260.928 
L 90.615869 269.568 
L 90.796333 260.928 
L 90.976797 235.008 
L 91.157261 235.008 
L 91.337725 260.928 
L 91.518189 243.648 
L 91.698653 269.568 
L 92.059581 243.648 
L 92.240044 269.568 
L 92.420508 260.928 
L 92.781436 226.368 
L 92.9619 269.568 
L 93.142364 252.288 
L 93.322828 260.928 
L 93.503292 278.208 
L 93.683756 252.288 
L 93.86422 260.928 
L 94.044683 243.648 
L 94.225147 260.928 
L 94.405611 243.648 
L 94.586075 243.648 
L 94.766539 252.288 
L 94.947003 252.288 
L 95.127467 243.648 
L 95.307931 269.568 
L 95.488395 243.648 
L 95.668858 200.448 
L 95.849322 235.008 
L 96.029786 243.648 
L 96.21025 269.568 
L 96.390714 269.568 
L 96.571178 260.928 
L 96.751642 260.928 
L 96.932106 252.288 
L 97.11257 260.928 
L 97.473497 209.088 
L 97.653961 260.928 
L 97.834425 226.368 
L 98.014889 217.728 
L 98.195353 243.648 
L 98.375817 235.008 
L 98.556281 269.568 
L 98.736745 243.648 
L 98.917209 243.648 
L 99.097672 260.928 
L 99.278136 260.928 
L 99.4586 200.448 
L 99.639064 269.568 
L 99.819528 235.008 
L 99.999992 269.568 
L 100.180456 235.008 
L 100.36092 235.008 
L 100.541384 226.368 
L 100.721847 260.928 
L 100.902311 200.448 
L 101.082775 260.928 
L 101.263239 235.008 
L 101.624167 269.568 
L 101.804631 191.808 
L 101.985095 269.568 
L 102.346023 243.648 
L 102.526486 252.288 
L 102.887414 252.288 
L 103.067878 269.568 
L 103.248342 226.368 
L 103.60927 243.648 
L 103.789734 269.568 
L 103.970198 269.568 
L 104.150661 226.368 
L 104.511589 243.648 
L 104.692053 269.568 
L 104.872517 200.448 
L 105.233445 269.568 
L 105.413909 226.368 
L 105.594373 243.648 
L 105.774837 235.008 
L 105.9553 217.728 
L 106.316228 217.728 
L 106.496692 243.648 
L 106.677156 174.528 
L 106.85762 217.728 
L 107.218548 217.728 
L 107.399012 243.648 
L 107.579475 243.648 
L 107.759939 235.008 
L 107.940403 217.728 
L 108.120867 235.008 
L 108.301331 191.808 
L 108.662259 209.088 
L 108.842723 209.088 
L 109.023187 191.808 
L 109.203651 200.448 
L 109.384114 269.568 
L 109.564578 226.368 
L 109.745042 252.288 
L 109.925506 252.288 
L 110.286434 174.528 
L 110.466898 226.368 
L 110.827826 243.648 
L 111.008289 217.728 
L 111.188753 209.088 
L 111.369217 217.728 
L 111.549681 243.648 
L 111.730145 252.288 
L 111.910609 235.008 
L 112.091073 260.928 
L 112.271537 209.088 
L 112.452001 252.288 
L 112.812928 209.088 
L 113.173856 226.368 
L 113.35432 200.448 
L 113.534784 157.248 
L 113.715248 226.368 
L 113.895712 209.088 
L 114.076176 235.008 
L 114.25664 226.368 
L 114.437103 200.448 
L 114.617567 226.368 
L 114.798031 209.088 
L 114.978495 260.928 
L 115.339423 183.168 
L 115.519887 217.728 
L 115.700351 209.088 
L 115.880815 226.368 
L 116.241742 165.888 
L 116.422206 260.928 
L 116.60267 200.448 
L 116.783134 191.808 
L 117.144062 260.928 
L 117.324526 191.808 
L 117.685454 226.368 
L 118.046381 183.168 
L 118.226845 209.088 
L 118.407309 183.168 
L 118.587773 191.808 
L 118.768237 191.808 
L 118.948701 235.008 
L 119.309629 174.528 
L 119.490092 191.808 
L 119.670556 235.008 
L 119.85102 209.088 
L 120.031484 269.568 
L 120.392412 148.608 
L 120.572876 200.448 
L 120.75334 217.728 
L 121.294731 174.528 
L 121.475195 235.008 
L 121.655659 226.368 
L 121.836123 191.808 
L 122.016587 200.448 
L 122.197051 191.808 
L 122.377515 252.288 
L 122.557979 217.728 
L 122.738443 226.368 
L 122.918906 174.528 
L 123.09937 209.088 
L 123.279834 191.808 
L 123.460298 217.728 
L 123.640762 217.728 
L 123.821226 209.088 
L 124.00169 243.648 
L 124.182154 183.168 
L 124.362618 226.368 
L 124.543082 217.728 
L 124.723545 217.728 
L 124.904009 200.448 
L 125.084473 252.288 
L 125.264937 191.808 
L 125.625865 217.728 
L 125.806329 209.088 
L 125.986793 235.008 
L 126.167257 209.088 
L 126.34772 209.088 
L 126.528184 217.728 
L 126.708648 243.648 
L 127.069576 209.088 
L 127.25004 209.088 
L 127.430504 278.208 
L 127.610968 165.888 
L 127.791432 226.368 
L 127.971895 165.888 
L 128.332823 226.368 
L 128.513287 217.728 
L 128.693751 226.368 
L 128.874215 183.168 
L 129.054679 226.368 
L 129.235143 191.808 
L 129.415607 200.448 
L 129.596071 200.448 
L 129.776534 165.888 
L 129.956998 183.168 
L 130.137462 243.648 
L 130.317926 243.648 
L 130.49839 183.168 
L 130.678854 243.648 
L 130.859318 200.448 
L 131.039782 191.808 
L 131.220246 200.448 
L 131.400709 148.608 
L 131.581173 260.928 
L 131.761637 165.888 
L 131.942101 157.248 
L 132.122565 243.648 
L 132.303029 157.248 
L 132.483493 217.728 
L 132.844421 217.728 
L 133.024885 165.888 
L 133.205348 235.008 
L 133.385812 235.008 
L 133.566276 217.728 
L 133.74674 217.728 
L 133.927204 139.968 
L 134.107668 260.928 
L 134.288132 165.888 
L 134.468596 200.448 
L 134.64906 165.888 
L 134.829523 174.528 
L 135.190451 148.608 
L 135.370915 226.368 
L 135.551379 165.888 
L 135.731843 174.528 
L 136.092771 174.528 
L 136.273235 148.608 
L 136.453699 235.008 
L 136.814626 183.168 
L 136.99509 200.448 
L 137.356018 114.048 
L 137.536482 200.448 
L 137.716946 157.248 
L 137.89741 235.008 
L 138.077874 209.088 
L 138.258337 165.888 
L 138.438801 209.088 
L 138.619265 209.088 
L 138.799729 191.808 
L 138.980193 191.808 
L 139.160657 157.248 
L 139.341121 209.088 
L 139.521585 165.888 
L 139.882513 209.088 
L 140.062976 217.728 
L 140.24344 183.168 
L 140.604368 226.368 
L 140.784832 165.888 
L 140.965296 235.008 
L 141.14576 174.528 
L 141.326224 200.448 
L 141.506688 191.808 
L 141.687151 174.528 
L 142.048079 217.728 
L 142.228543 174.528 
L 142.409007 174.528 
L 142.589471 191.808 
L 142.769935 191.808 
L 142.950399 217.728 
L 143.130863 157.248 
L 143.49179 122.688 
L 143.672254 191.808 
L 143.852718 148.608 
L 144.213646 226.368 
L 144.39411 226.368 
L 144.935502 139.968 
L 145.296429 183.168 
L 145.476893 200.448 
L 145.657357 200.448 
L 145.837821 165.888 
L 146.018285 165.888 
L 146.198749 157.248 
L 146.379213 174.528 
L 146.559677 157.248 
L 146.74014 183.168 
L 146.920604 252.288 
L 147.101068 165.888 
L 147.281532 200.448 
L 147.461996 114.048 
L 147.64246 174.528 
L 147.822924 183.168 
L 148.183852 148.608 
L 148.364316 217.728 
L 148.725243 191.808 
L 148.905707 131.328 
L 149.086171 148.608 
L 149.266635 139.968 
L 149.627563 157.248 
L 149.808027 122.688 
L 149.988491 174.528 
L 150.349418 96.768 
L 150.529882 209.088 
L 150.710346 131.328 
L 151.071274 157.248 
L 151.251738 165.888 
L 151.432202 200.448 
L 151.612666 131.328 
L 151.79313 165.888 
L 151.973593 235.008 
L 152.154057 148.608 
L 152.334521 183.168 
L 152.514985 183.168 
L 152.695449 243.648 
L 152.875913 131.328 
L 153.056377 191.808 
L 153.236841 131.328 
L 153.417305 191.808 
L 153.597768 191.808 
L 153.778232 157.248 
L 153.958696 174.528 
L 154.13916 174.528 
L 154.319624 243.648 
L 154.500088 139.968 
L 154.680552 174.528 
L 154.861016 157.248 
L 155.04148 200.448 
L 155.221944 157.248 
L 155.402407 183.168 
L 155.582871 226.368 
L 155.763335 139.968 
L 155.943799 209.088 
L 156.124263 148.608 
L 156.304727 209.088 
L 156.485191 165.888 
L 156.665655 200.448 
L 157.026582 174.528 
L 157.207046 131.328 
L 157.38751 165.888 
L 157.567974 174.528 
L 157.748438 165.888 
L 157.928902 243.648 
L 158.109366 148.608 
L 158.28983 165.888 
L 158.470294 148.608 
L 158.650757 157.248 
L 158.831221 139.968 
L 159.011685 165.888 
L 159.192149 148.608 
L 159.553077 191.808 
L 159.733541 191.808 
L 160.094469 165.888 
L 160.455396 165.888 
L 160.63586 148.608 
L 160.996788 148.608 
L 161.177252 157.248 
L 161.357716 174.528 
L 161.53818 148.608 
L 161.718644 139.968 
L 161.899108 209.088 
L 162.079571 209.088 
L 162.260035 148.608 
L 162.440499 183.168 
L 162.981891 139.968 
L 163.342819 157.248 
L 163.523283 183.168 
L 163.703747 148.608 
L 163.88421 157.248 
L 164.064674 122.688 
L 164.245138 114.048 
L 164.425602 174.528 
L 164.606066 191.808 
L 164.78653 122.688 
L 164.966994 122.688 
L 165.147458 114.048 
L 165.508385 157.248 
L 165.869313 131.328 
L 166.049777 174.528 
L 166.230241 139.968 
L 166.410705 209.088 
L 166.591169 114.048 
L 166.771633 157.248 
L 166.952097 165.888 
L 167.132561 157.248 
L 167.313024 105.408 
L 167.493488 131.328 
L 167.673952 183.168 
L 167.854416 139.968 
L 168.03488 139.968 
L 168.215344 209.088 
L 168.395808 157.248 
L 168.576272 183.168 
L 168.756736 122.688 
L 168.937199 243.648 
L 169.117663 114.048 
L 169.298127 131.328 
L 169.478591 122.688 
L 169.659055 157.248 
L 169.839519 157.248 
L 170.019983 183.168 
L 170.200447 139.968 
L 170.380911 131.328 
L 170.561375 165.888 
L 170.741838 148.608 
L 170.922302 165.888 
L 171.102766 165.888 
L 171.463694 191.808 
L 171.644158 148.608 
L 171.824622 165.888 
L 172.005086 165.888 
L 172.18555 148.608 
L 172.366013 209.088 
L 172.546477 96.768 
L 172.726941 217.728 
L 173.087869 148.608 
L 173.268333 183.168 
L 173.448797 148.608 
L 173.629261 157.248 
L 173.809725 122.688 
L 173.990188 165.888 
L 174.170652 165.888 
L 174.351116 131.328 
L 174.53158 131.328 
L 174.712044 157.248 
L 174.892508 79.488 
L 175.072972 157.248 
L 175.253436 148.608 
L 175.4339 131.328 
L 175.614364 157.248 
L 175.794827 226.368 
L 175.975291 122.688 
L 176.155755 105.408 
L 176.516683 183.168 
L 176.697147 183.168 
L 176.877611 165.888 
L 177.058075 191.808 
L 177.238539 114.048 
L 177.419002 105.408 
L 177.599466 114.048 
L 177.77993 157.248 
L 177.960394 157.248 
L 178.140858 200.448 
L 178.321322 148.608 
L 178.501786 174.528 
L 178.68225 139.968 
L 178.862714 148.608 
L 179.223641 174.528 
L 179.404105 114.048 
L 179.584569 183.168 
L 179.765033 96.768 
L 179.945497 114.048 
L 180.125961 96.768 
L 180.306425 131.328 
L 180.486889 139.968 
L 180.667353 122.688 
L 180.847816 148.608 
L 181.02828 148.608 
L 181.208744 122.688 
L 181.389208 122.688 
L 181.569672 174.528 
L 181.750136 139.968 
L 181.9306 157.248 
L 182.111064 105.408 
L 182.471992 131.328 
L 182.652455 122.688 
L 182.832919 139.968 
L 183.013383 122.688 
L 183.193847 148.608 
L 183.374311 148.608 
L 183.554775 157.248 
L 183.735239 122.688 
L 183.915703 122.688 
L 184.096167 157.248 
L 184.27663 139.968 
L 184.457094 105.408 
L 184.637558 209.088 
L 184.818022 88.128 
L 184.998486 200.448 
L 185.17895 148.608 
L 185.359414 165.888 
L 185.539878 88.128 
L 185.900805 191.808 
L 186.081269 165.888 
L 186.261733 165.888 
L 186.442197 114.048 
L 186.622661 183.168 
L 186.803125 183.168 
L 187.164053 131.328 
L 187.344517 235.008 
L 187.524981 148.608 
L 187.705444 183.168 
L 187.885908 183.168 
L 188.066372 200.448 
L 188.246836 131.328 
L 188.607764 131.328 
L 188.788228 122.688 
L 189.149156 209.088 
L 189.329619 131.328 
L 189.510083 174.528 
L 189.690547 165.888 
L 190.051475 88.128 
L 190.231939 191.808 
L 190.412403 139.968 
L 190.773331 105.408 
L 191.134258 157.248 
L 191.314722 96.768 
L 191.495186 88.128 
L 191.67565 191.808 
L 192.036578 139.968 
L 192.217042 122.688 
L 192.397506 131.328 
L 192.57797 217.728 
L 192.758433 131.328 
L 192.938897 174.528 
L 193.119361 131.328 
L 193.299825 174.528 
L 193.480289 105.408 
L 193.660753 174.528 
L 193.841217 165.888 
L 194.021681 88.128 
L 194.202145 139.968 
L 194.563072 96.768 
L 194.743536 183.168 
L 194.924 157.248 
L 195.104464 157.248 
L 195.284928 122.688 
L 195.465392 139.968 
L 195.645856 88.128 
L 195.82632 157.248 
L 196.006784 96.768 
L 196.187247 122.688 
L 196.367711 79.488 
L 196.548175 122.688 
L 196.728639 114.048 
L 196.909103 165.888 
L 197.089567 165.888 
L 197.270031 96.768 
L 197.450495 165.888 
L 197.630959 105.408 
L 197.811423 139.968 
L 197.991886 88.128 
L 198.17235 96.768 
L 198.533278 148.608 
L 198.713742 165.888 
L 198.894206 96.768 
L 199.255134 165.888 
L 199.435598 114.048 
L 199.616061 148.608 
L 199.796525 157.248 
L 199.976989 148.608 
L 200.157453 183.168 
L 200.337917 105.408 
L 200.518381 139.968 
L 200.698845 88.128 
L 201.059773 148.608 
L 201.240236 174.528 
L 201.4207 114.048 
L 201.601164 148.608 
L 201.781628 131.328 
L 201.962092 183.168 
L 202.142556 96.768 
L 202.32302 114.048 
L 202.503484 217.728 
L 202.864412 79.488 
L 203.044875 148.608 
L 203.225339 114.048 
L 203.405803 139.968 
L 203.586267 139.968 
L 203.766731 79.488 
L 204.127659 209.088 
L 204.488587 114.048 
L 204.66905 114.048 
L 204.849514 131.328 
L 205.029978 105.408 
L 205.210442 174.528 
L 205.390906 139.968 
L 205.57137 148.608 
L 205.751834 165.888 
L 206.112762 122.688 
L 206.293226 131.328 
L 206.473689 183.168 
L 206.654153 139.968 
L 206.834617 183.168 
L 207.015081 70.848 
L 207.376009 165.888 
L 207.556473 209.088 
L 207.736937 191.808 
L 207.917401 226.368 
L 208.097864 148.608 
L 208.278328 131.328 
L 208.458792 131.328 
L 208.639256 105.408 
L 209.000184 165.888 
L 209.180648 148.608 
L 209.361112 183.168 
L 209.541576 131.328 
L 209.72204 217.728 
L 209.902503 96.768 
L 210.082967 174.528 
L 210.624359 70.848 
L 210.804823 131.328 
L 210.985287 79.488 
L 211.165751 122.688 
L 211.346215 105.408 
L 211.526678 174.528 
L 211.707142 139.968 
L 211.887606 174.528 
L 212.06807 157.248 
L 212.248534 165.888 
L 212.428998 114.048 
L 212.609462 139.968 
L 212.789926 148.608 
L 212.97039 148.608 
L 213.150854 157.248 
L 213.331317 131.328 
L 213.511781 157.248 
L 213.692245 165.888 
L 213.872709 114.048 
L 214.053173 139.968 
L 214.233637 114.048 
L 214.414101 114.048 
L 214.594565 235.008 
L 214.775029 88.128 
L 214.955492 114.048 
L 215.135956 114.048 
L 215.31642 79.488 
L 215.496884 209.088 
L 215.677348 139.968 
L 215.857812 114.048 
L 216.038276 174.528 
L 216.21874 114.048 
L 216.399204 157.248 
L 216.579667 105.408 
L 216.760131 183.168 
L 216.940595 105.408 
L 217.121059 105.408 
L 217.301523 174.528 
L 217.481987 114.048 
L 217.662451 139.968 
L 217.842915 96.768 
L 218.023379 139.968 
L 218.203843 114.048 
L 218.384306 174.528 
L 218.56477 191.808 
L 218.745234 114.048 
L 218.925698 200.448 
L 219.106162 88.128 
L 219.286626 209.088 
L 219.46709 96.768 
L 219.647554 114.048 
L 219.828018 191.808 
L 220.008481 157.248 
L 220.188945 148.608 
L 220.369409 174.528 
L 220.549873 114.048 
L 220.730337 157.248 
L 220.910801 105.408 
L 221.271729 174.528 
L 221.452193 165.888 
L 221.81312 96.768 
L 221.993584 88.128 
L 222.174048 174.528 
L 222.354512 70.848 
L 222.71544 183.168 
L 222.895904 165.888 
L 223.076368 105.408 
L 223.256832 200.448 
L 223.437295 96.768 
L 223.617759 174.528 
L 223.978687 96.768 
L 224.159151 174.528 
L 224.339615 105.408 
L 224.520079 183.168 
L 224.700543 105.408 
L 224.881007 139.968 
L 225.061471 148.608 
L 225.241934 148.608 
L 225.422398 114.048 
L 225.602862 252.288 
L 225.783326 96.768 
L 225.96379 148.608 
L 226.144254 122.688 
L 226.505182 209.088 
L 226.685646 174.528 
L 226.866109 243.648 
L 227.046573 114.048 
L 227.227037 122.688 
L 227.407501 183.168 
L 227.948893 62.208 
L 228.129357 139.968 
L 228.309821 122.688 
L 228.490285 157.248 
L 228.670748 79.488 
L 228.851212 96.768 
L 229.031676 183.168 
L 229.21214 131.328 
L 229.392604 200.448 
L 229.753532 157.248 
L 229.933996 105.408 
L 230.11446 122.688 
L 230.294923 105.408 
L 230.475387 131.328 
L 230.655851 200.448 
L 230.836315 139.968 
L 231.016779 148.608 
L 231.197243 114.048 
L 231.377707 183.168 
L 231.558171 114.048 
L 231.919098 131.328 
L 232.099562 157.248 
L 232.280026 105.408 
L 232.46049 157.248 
L 232.640954 157.248 
L 232.821418 148.608 
L 233.001882 105.408 
L 233.182346 148.608 
L 233.36281 122.688 
L 233.543274 148.608 
L 233.723737 53.568 
L 233.904201 139.968 
L 234.265129 183.168 
L 234.445593 148.608 
L 234.626057 174.528 
L 234.806521 139.968 
L 234.986985 165.888 
L 235.167449 157.248 
L 235.347912 79.488 
L 235.70884 148.608 
L 235.889304 139.968 
L 236.069768 174.528 
L 236.250232 114.048 
L 236.430696 105.408 
L 236.972088 217.728 
L 237.152551 191.808 
L 237.333015 122.688 
L 237.513479 122.688 
L 237.693943 70.848 
L 238.054871 191.808 
L 238.235335 114.048 
L 238.415799 157.248 
L 238.596263 148.608 
L 238.776726 243.648 
L 239.137654 122.688 
L 239.318118 252.288 
L 239.498582 157.248 
L 239.679046 191.808 
L 239.85951 114.048 
L 240.039974 148.608 
L 240.220438 122.688 
L 240.581365 105.408 
L 240.761829 105.408 
L 240.942293 226.368 
L 241.122757 105.408 
L 241.303221 131.328 
L 241.483685 139.968 
L 241.664149 131.328 
L 241.844613 200.448 
L 242.025077 183.168 
L 242.20554 122.688 
L 242.566468 183.168 
L 242.746932 139.968 
L 242.927396 131.328 
L 243.10786 148.608 
L 243.288324 79.488 
L 243.468788 148.608 
L 243.649252 148.608 
L 243.829715 114.048 
L 244.010179 200.448 
L 244.190643 131.328 
L 244.371107 139.968 
L 244.551571 157.248 
L 244.732035 139.968 
L 244.912499 96.768 
L 245.092963 131.328 
L 245.273427 209.088 
L 245.453891 148.608 
L 245.634354 200.448 
L 245.814818 122.688 
L 246.175746 165.888 
L 246.35621 96.768 
L 246.536674 148.608 
L 247.078066 122.688 
L 247.258529 174.528 
L 247.619457 96.768 
L 247.799921 114.048 
L 247.980385 70.848 
L 248.160849 174.528 
L 248.341313 122.688 
L 248.521777 122.688 
L 248.702241 88.128 
L 248.882705 122.688 
L 249.063168 200.448 
L 249.243632 165.888 
L 249.424096 165.888 
L 249.60456 114.048 
L 249.785024 148.608 
L 250.145952 79.488 
L 250.326416 131.328 
L 250.50688 114.048 
L 250.687343 148.608 
L 251.048271 165.888 
L 251.228735 191.808 
L 251.409199 122.688 
L 251.589663 174.528 
L 251.950591 79.488 
L 252.131055 122.688 
L 252.311519 114.048 
L 252.491982 165.888 
L 252.672446 96.768 
L 252.85291 157.248 
L 253.033374 174.528 
L 253.213838 131.328 
L 253.394302 122.688 
L 253.75523 88.128 
L 253.935694 105.408 
L 254.116157 105.408 
L 254.296621 122.688 
L 254.477085 114.048 
L 254.838013 157.248 
L 255.018477 114.048 
L 255.198941 122.688 
L 255.379405 88.128 
L 255.559869 131.328 
L 255.740333 122.688 
L 255.920796 79.488 
L 256.10126 157.248 
L 256.281724 131.328 
L 256.462188 131.328 
L 256.642652 148.608 
L 256.823116 79.488 
L 257.00358 148.608 
L 257.184044 157.248 
L 257.364508 131.328 
L 257.544971 183.168 
L 257.725435 165.888 
L 257.905899 122.688 
L 258.086363 114.048 
L 258.266827 243.648 
L 258.447291 105.408 
L 258.627755 148.608 
L 258.808219 122.688 
L 258.988683 165.888 
L 259.169146 131.328 
L 259.34961 174.528 
L 259.530074 139.968 
L 259.710538 139.968 
L 260.071466 88.128 
L 260.432394 165.888 
L 260.612858 131.328 
L 260.793322 131.328 
L 260.973785 122.688 
L 261.154249 88.128 
L 261.334713 165.888 
L 261.515177 183.168 
L 261.695641 165.888 
L 262.056569 96.768 
L 262.237033 148.608 
L 262.417497 157.248 
L 262.59796 131.328 
L 262.778424 88.128 
L 262.958888 139.968 
L 263.139352 122.688 
L 263.50028 183.168 
L 263.680744 131.328 
L 263.861208 139.968 
L 264.041672 217.728 
L 264.583063 88.128 
L 264.763527 96.768 
L 265.124455 191.808 
L 265.304919 88.128 
L 265.485383 70.848 
L 265.846311 183.168 
L 266.026774 114.048 
L 266.207238 243.648 
L 266.387702 122.688 
L 266.568166 165.888 
L 266.74863 122.688 
L 266.929094 131.328 
L 267.109558 183.168 
L 267.290022 139.968 
L 267.470486 174.528 
L 267.65095 105.408 
L 267.831413 200.448 
L 268.011877 148.608 
L 268.192341 235.008 
L 268.553269 105.408 
L 268.733733 105.408 
L 268.914197 174.528 
L 269.094661 157.248 
L 269.275125 105.408 
L 269.636052 183.168 
L 269.816516 139.968 
L 269.99698 200.448 
L 270.357908 96.768 
L 270.538372 131.328 
L 270.718836 122.688 
L 270.8993 88.128 
L 271.260227 174.528 
L 271.440691 174.528 
L 271.621155 105.408 
L 271.801619 139.968 
L 271.982083 209.088 
L 272.523475 148.608 
L 272.703939 114.048 
L 272.884402 174.528 
L 273.064866 174.528 
L 273.24533 148.608 
L 273.425794 70.848 
L 273.606258 148.608 
L 273.967186 148.608 
L 274.14765 200.448 
L 274.328114 209.088 
L 274.508577 139.968 
L 274.689041 191.808 
L 274.869505 183.168 
L 275.230433 122.688 
L 275.410897 191.808 
L 275.591361 88.128 
L 275.771825 88.128 
L 275.952289 165.888 
L 276.132753 165.888 
L 276.313216 217.728 
L 276.49368 139.968 
L 276.854608 217.728 
L 277.035072 122.688 
L 277.215536 148.608 
L 277.396 96.768 
L 277.576464 96.768 
L 277.756928 122.688 
L 277.937391 243.648 
L 278.117855 131.328 
L 278.298319 148.608 
L 278.478783 114.048 
L 278.659247 209.088 
L 278.839711 235.008 
L 279.200639 79.488 
L 279.381103 165.888 
L 279.561567 96.768 
L 279.74203 174.528 
L 279.922494 96.768 
L 280.102958 131.328 
L 280.283422 131.328 
L 280.463886 200.448 
L 280.64435 105.408 
L 280.824814 148.608 
L 281.005278 139.968 
L 281.366205 96.768 
L 281.546669 96.768 
L 281.727133 157.248 
L 281.907597 62.208 
L 282.088061 131.328 
L 282.268525 131.328 
L 282.448989 217.728 
L 282.629453 200.448 
L 282.809917 114.048 
L 282.990381 139.968 
L 283.170844 96.768 
L 283.351308 105.408 
L 283.531772 122.688 
L 283.712236 122.688 
L 283.8927 105.408 
L 284.073164 131.328 
L 284.253628 122.688 
L 284.434092 157.248 
L 284.614556 96.768 
L 284.795019 183.168 
L 284.975483 191.808 
L 285.155947 209.088 
L 285.336411 157.248 
L 285.516875 165.888 
L 285.697339 131.328 
L 285.877803 174.528 
L 286.238731 139.968 
L 286.419195 139.968 
L 286.599658 122.688 
L 286.780122 157.248 
L 286.960586 139.968 
L 287.14105 191.808 
L 287.321514 131.328 
L 287.501978 114.048 
L 287.682442 191.808 
L 287.862906 209.088 
L 288.223833 96.768 
L 288.404297 131.328 
L 288.584761 96.768 
L 288.765225 96.768 
L 289.306617 148.608 
L 289.487081 139.968 
L 289.667545 217.728 
L 289.848008 157.248 
L 290.028472 165.888 
L 290.569864 139.968 
L 290.750328 96.768 
L 290.930792 105.408 
L 291.111256 96.768 
L 291.29172 96.768 
L 291.472184 79.488 
L 291.652647 96.768 
L 291.833111 88.128 
L 292.013575 209.088 
L 292.554967 122.688 
L 292.735431 139.968 
L 292.915895 105.408 
L 293.096359 105.408 
L 293.457286 191.808 
L 293.63775 96.768 
L 293.818214 122.688 
L 293.998678 131.328 
L 294.179142 70.848 
L 294.359606 88.128 
L 294.54007 53.568 
L 294.720534 88.128 
L 294.900998 96.768 
L 295.081461 174.528 
L 295.261925 165.888 
L 295.442389 131.328 
L 295.622853 165.888 
L 296.344709 105.408 
L 296.525173 157.248 
L 296.705636 148.608 
L 296.8861 131.328 
L 297.066564 157.248 
L 297.247028 131.328 
L 297.427492 191.808 
L 297.607956 114.048 
L 297.78842 209.088 
L 297.968884 114.048 
L 298.149348 200.448 
L 298.329812 105.408 
L 298.510275 122.688 
L 298.690739 122.688 
L 298.871203 157.248 
L 299.051667 122.688 
L 299.412595 157.248 
L 299.593059 148.608 
L 299.773523 157.248 
L 299.953987 79.488 
L 300.314914 148.608 
L 300.495378 114.048 
L 300.856306 200.448 
L 301.03677 131.328 
L 301.217234 114.048 
L 301.397698 209.088 
L 301.758625 122.688 
L 301.939089 157.248 
L 302.300017 131.328 
L 302.480481 165.888 
L 302.660945 114.048 
L 302.841409 131.328 
L 303.021873 174.528 
L 303.202337 131.328 
L 303.382801 165.888 
L 303.563264 157.248 
L 303.743728 122.688 
L 303.924192 165.888 
L 304.104656 165.888 
L 304.28512 122.688 
L 304.465584 122.688 
L 304.646048 139.968 
L 304.826512 105.408 
L 305.006976 174.528 
L 305.367903 88.128 
L 305.728831 139.968 
L 305.909295 96.768 
L 306.089759 88.128 
L 306.450687 165.888 
L 306.631151 226.368 
L 307.172542 105.408 
L 307.353006 139.968 
L 307.53347 96.768 
L 307.894398 148.608 
L 308.074862 70.848 
L 308.255326 217.728 
L 308.43579 165.888 
L 308.616253 148.608 
L 308.796717 114.048 
L 308.977181 114.048 
L 309.157645 96.768 
L 309.338109 148.608 
L 309.518573 105.408 
L 309.699037 131.328 
L 309.879501 183.168 
L 310.059965 165.888 
L 310.240429 122.688 
L 310.420892 114.048 
L 310.601356 174.528 
L 310.78182 122.688 
L 311.142748 96.768 
L 311.68414 183.168 
L 312.045067 148.608 
L 312.225531 62.208 
L 312.405995 217.728 
L 312.766923 131.328 
L 312.947387 209.088 
L 313.127851 165.888 
L 313.308315 79.488 
L 313.488779 165.888 
L 313.669243 191.808 
L 313.849706 88.128 
L 314.210634 139.968 
L 314.391098 114.048 
L 314.571562 139.968 
L 314.752026 122.688 
L 314.93249 148.608 
L 315.112954 209.088 
L 315.293418 174.528 
L 315.473881 174.528 
L 315.654345 165.888 
L 316.015273 131.328 
L 316.195737 174.528 
L 316.376201 131.328 
L 316.556665 165.888 
L 316.737129 174.528 
L 317.098056 157.248 
L 317.27852 114.048 
L 317.458984 191.808 
L 317.639448 131.328 
L 317.819912 226.368 
L 318.000376 105.408 
L 318.18084 114.048 
L 318.361304 114.048 
L 318.541768 183.168 
L 318.722232 139.968 
L 318.902695 165.888 
L 319.083159 157.248 
L 319.263623 165.888 
L 319.444087 157.248 
L 319.624551 105.408 
L 319.805015 105.408 
L 319.985479 96.768 
L 320.165943 122.688 
L 320.346407 96.768 
L 320.52687 157.248 
L 321.068262 114.048 
L 321.248726 157.248 
L 321.42919 157.248 
L 321.609654 122.688 
L 321.790118 174.528 
L 321.970582 148.608 
L 322.151046 105.408 
L 322.331509 139.968 
L 322.511973 88.128 
L 322.872901 157.248 
L 323.053365 174.528 
L 323.233829 114.048 
L 323.414293 174.528 
L 323.594757 139.968 
L 323.775221 139.968 
L 323.955684 131.328 
L 324.136148 139.968 
L 324.316612 174.528 
L 324.497076 114.048 
L 324.67754 139.968 
L 324.858004 191.808 
L 325.038468 148.608 
L 325.218932 148.608 
L 325.399396 131.328 
L 325.57986 131.328 
L 325.760323 139.968 
L 325.940787 131.328 
L 326.121251 174.528 
L 326.482179 131.328 
L 326.662643 243.648 
L 326.843107 114.048 
L 327.023571 200.448 
L 327.204035 139.968 
L 327.384498 148.608 
L 327.564962 200.448 
L 327.745426 105.408 
L 327.92589 157.248 
L 328.106354 114.048 
L 328.286818 122.688 
L 328.467282 157.248 
L 328.647746 62.208 
L 328.82821 88.128 
L 329.008674 165.888 
L 329.189137 174.528 
L 329.369601 122.688 
L 329.730529 217.728 
L 329.910993 53.568 
L 330.091457 105.408 
L 330.271921 200.448 
L 330.452385 157.248 
L 330.632849 79.488 
L 330.993776 183.168 
L 331.17424 174.528 
L 331.354704 157.248 
L 331.535168 79.488 
L 331.715632 131.328 
L 331.896096 114.048 
L 332.07656 114.048 
L 332.257024 200.448 
L 332.437487 148.608 
L 332.617951 226.368 
L 332.798415 105.408 
L 332.978879 174.528 
L 333.159343 114.048 
L 333.339807 183.168 
L 333.700735 105.408 
L 333.881199 114.048 
L 334.061663 165.888 
L 334.242126 122.688 
L 334.42259 114.048 
L 334.603054 157.248 
L 334.783518 131.328 
L 334.963982 62.208 
L 335.144446 217.728 
L 335.32491 174.528 
L 335.505374 200.448 
L 335.685838 105.408 
L 335.866301 148.608 
L 336.046765 139.968 
L 336.227229 157.248 
L 336.407693 148.608 
L 336.588157 105.408 
L 336.768621 148.608 
L 336.949085 114.048 
L 337.129549 122.688 
L 337.310013 157.248 
L 337.490477 165.888 
L 337.851404 114.048 
L 338.031868 200.448 
L 338.392796 114.048 
L 338.57326 148.608 
L 338.753724 88.128 
L 338.934188 88.128 
L 339.114652 191.808 
L 339.295115 200.448 
L 339.475579 96.768 
L 339.656043 105.408 
L 339.836507 191.808 
L 340.016971 105.408 
L 340.197435 157.248 
L 340.377899 131.328 
L 340.558363 88.128 
L 340.738827 200.448 
L 340.919291 79.488 
L 341.099754 226.368 
L 341.280218 165.888 
L 341.460682 191.808 
L 341.641146 114.048 
L 341.82161 148.608 
L 342.002074 148.608 
L 342.182538 114.048 
L 342.363002 217.728 
L 342.543466 165.888 
L 342.904393 139.968 
L 343.084857 209.088 
L 343.265321 148.608 
L 343.445785 165.888 
L 343.626249 122.688 
L 343.806713 235.008 
L 343.987177 217.728 
L 344.348105 139.968 
L 344.528568 165.888 
L 344.709032 53.568 
L 344.889496 105.408 
L 345.06996 114.048 
L 345.430888 191.808 
L 345.611352 165.888 
L 345.791816 165.888 
L 345.97228 114.048 
L 346.152743 96.768 
L 346.333207 157.248 
L 346.513671 96.768 
L 346.694135 122.688 
L 346.874599 122.688 
L 347.055063 148.608 
L 347.235527 139.968 
L 347.596455 217.728 
L 347.957382 105.408 
L 348.137846 122.688 
L 348.31831 88.128 
L 348.498774 139.968 
L 348.679238 148.608 
L 348.859702 191.808 
L 349.040166 122.688 
L 349.22063 105.408 
L 349.401094 105.408 
L 349.581557 252.288 
L 349.762021 226.368 
L 349.942485 157.248 
L 350.122949 174.528 
L 350.303413 122.688 
L 350.483877 183.168 
L 350.664341 139.968 
L 350.844805 148.608 
L 351.025269 139.968 
L 351.205732 183.168 
L 351.386196 122.688 
L 351.56666 131.328 
L 351.747124 96.768 
L 351.927588 183.168 
L 352.108052 174.528 
L 352.288516 157.248 
L 352.46898 174.528 
L 352.649444 96.768 
L 353.190835 139.968 
L 353.551763 139.968 
L 353.732227 226.368 
L 354.093155 131.328 
L 354.273619 131.328 
L 354.454083 114.048 
L 354.634546 131.328 
L 354.81501 96.768 
L 355.175938 183.168 
L 355.356402 191.808 
L 355.536866 105.408 
L 355.71733 157.248 
L 355.897794 105.408 
L 356.078258 165.888 
L 356.258722 139.968 
L 356.439185 139.968 
L 356.619649 131.328 
L 356.800113 148.608 
L 356.980577 200.448 
L 357.161041 122.688 
L 357.341505 122.688 
L 357.521969 217.728 
L 357.702433 217.728 
L 358.06336 148.608 
L 358.243824 131.328 
L 358.424288 165.888 
L 358.604752 165.888 
L 358.785216 157.248 
L 358.96568 165.888 
L 359.146144 157.248 
L 359.326608 122.688 
L 359.507072 157.248 
L 359.687535 165.888 
L 359.867999 183.168 
L 360.048463 105.408 
L 360.228927 114.048 
L 360.409391 131.328 
L 360.770319 191.808 
L 360.950783 88.128 
L 361.131247 148.608 
L 361.311711 148.608 
L 361.492174 191.808 
L 361.672638 165.888 
L 361.853102 114.048 
L 362.033566 131.328 
L 362.394494 183.168 
L 362.574958 105.408 
L 362.755422 105.408 
L 362.935886 148.608 
L 363.116349 131.328 
L 363.296813 165.888 
L 363.477277 139.968 
L 363.657741 174.528 
L 363.838205 174.528 
L 364.018669 183.168 
L 364.199133 165.888 
L 364.379597 96.768 
L 364.560061 131.328 
L 364.740525 131.328 
L 364.920988 139.968 
L 365.101452 131.328 
L 365.281916 139.968 
L 365.46238 114.048 
L 365.642844 105.408 
L 365.823308 139.968 
L 366.003772 88.128 
L 366.184236 105.408 
L 366.3647 165.888 
L 366.545163 122.688 
L 366.725627 200.448 
L 366.906091 131.328 
L 367.086555 174.528 
L 367.267019 105.408 
L 367.447483 183.168 
L 367.627947 139.968 
L 367.808411 157.248 
L 367.988875 114.048 
L 368.169339 148.608 
L 368.349802 131.328 
L 368.530266 200.448 
L 368.71073 183.168 
L 368.891194 191.808 
L 369.071658 148.608 
L 369.252122 139.968 
L 369.432586 209.088 
L 369.61305 105.408 
L 369.973977 174.528 
L 370.154441 174.528 
L 370.334905 148.608 
L 370.695833 174.528 
L 370.876297 79.488 
L 371.056761 122.688 
L 371.237225 131.328 
L 371.417689 174.528 
L 371.598153 157.248 
L 371.95908 96.768 
L 372.320008 209.088 
L 372.500472 174.528 
L 372.680936 96.768 
L 372.8614 70.848 
L 373.041864 174.528 
L 373.222328 157.248 
L 373.402791 96.768 
L 373.763719 200.448 
L 373.944183 96.768 
L 374.124647 139.968 
L 374.305111 226.368 
L 374.485575 139.968 
L 374.666039 131.328 
L 374.846503 96.768 
L 375.026966 174.528 
L 375.20743 183.168 
L 375.387894 131.328 
L 375.748822 243.648 
L 375.929286 148.608 
L 376.10975 183.168 
L 376.290214 191.808 
L 376.470678 209.088 
L 376.651142 114.048 
L 376.831605 105.408 
L 377.012069 139.968 
L 377.192533 114.048 
L 377.372997 174.528 
L 377.733925 139.968 
L 377.914389 165.888 
L 378.094853 165.888 
L 378.275317 131.328 
L 378.45578 165.888 
L 378.636244 131.328 
L 378.816708 209.088 
L 378.997172 122.688 
L 379.177636 174.528 
L 379.3581 260.928 
L 379.538564 183.168 
L 379.719028 174.528 
L 379.899492 139.968 
L 380.079956 226.368 
L 380.440883 122.688 
L 380.621347 191.808 
L 381.162739 148.608 
L 381.343203 165.888 
L 381.523667 157.248 
L 381.704131 191.808 
L 381.884594 148.608 
L 382.245522 174.528 
L 382.425986 183.168 
L 382.786914 114.048 
L 382.967378 174.528 
L 383.147842 139.968 
L 383.328306 200.448 
L 383.689233 148.608 
L 383.869697 191.808 
L 384.050161 114.048 
L 384.230625 114.048 
L 384.411089 174.528 
L 384.591553 157.248 
L 384.772017 226.368 
L 384.952481 122.688 
L 385.132945 114.048 
L 385.313408 122.688 
L 385.493872 174.528 
L 385.674336 105.408 
L 385.8548 174.528 
L 386.035264 114.048 
L 386.396192 209.088 
L 386.576656 139.968 
L 386.75712 217.728 
L 386.937584 139.968 
L 387.118047 139.968 
L 387.298511 174.528 
L 387.478975 157.248 
L 387.659439 114.048 
L 388.020367 191.808 
L 388.200831 139.968 
L 388.381295 165.888 
L 388.561759 157.248 
L 388.742222 114.048 
L 388.922686 174.528 
L 389.10315 139.968 
L 389.283614 183.168 
L 389.464078 79.488 
L 389.825006 131.328 
L 390.00547 131.328 
L 390.185934 105.408 
L 390.546861 217.728 
L 390.727325 226.368 
L 390.907789 114.048 
L 391.088253 183.168 
L 391.268717 148.608 
L 391.449181 139.968 
L 391.629645 174.528 
L 391.810109 174.528 
L 392.171036 114.048 
L 392.3515 139.968 
L 392.531964 183.168 
L 392.712428 148.608 
L 392.892892 139.968 
L 393.073356 174.528 
L 393.25382 174.528 
L 393.614748 96.768 
L 393.795211 148.608 
L 393.975675 139.968 
L 394.156139 191.808 
L 394.336603 131.328 
L 394.517067 157.248 
L 394.697531 105.408 
L 394.877995 183.168 
L 395.238923 209.088 
L 395.780314 62.208 
L 395.960778 174.528 
L 396.321706 157.248 
L 396.50217 191.808 
L 396.682634 105.408 
L 396.863098 165.888 
L 397.043562 174.528 
L 397.224025 88.128 
L 397.404489 183.168 
L 397.584953 209.088 
L 397.765417 88.128 
L 397.945881 226.368 
L 398.126345 174.528 
L 398.306809 157.248 
L 398.487273 165.888 
L 398.487273 165.888 
" style="fill:none;stroke:#1f77b4;stroke-linecap:square;stroke-width:1.5;"/>
   </g>
   <g id="patch_3">
    <path d="M 57.6 307.584 
L 57.6 41.472 
" style="fill:none;stroke:#000000;stroke-linecap:square;stroke-linejoin:miter;stroke-width:0.8;"/>
   </g>
   <g id="patch_4">
    <path d="M 414.72 307.584 
L 414.72 41.472 
" style="fill:none;stroke:#000000;stroke-linecap:square;stroke-linejoin:miter;stroke-width:0.8;"/>
   </g>
   <g id="patch_5">
    <path d="M 57.6 307.584 
L 414.72 307.584 
" style="fill:none;stroke:#000000;stroke-linecap:square;stroke-linejoin:miter;stroke-width:0.8;"/>
   </g>
   <g id="patch_6">
    <path d="M 57.6 41.472 
L 414.72 41.472 
" style="fill:none;stroke:#000000;stroke-linecap:square;stroke-linejoin:miter;stroke-width:0.8;"/>
   </g>
  </g>
 </g>
 <defs>
  <clipPath id="pdffb61e452">
   <rect height="266.112" width="357.12" x="57.6" y="41.472"/>
  </clipPath>
 </defs>
</svg>
